<?xml version="1.0" encoding="UTF-8"?>
<!DOCTYPE svg PUBLIC "-//W3C//DTD SVG 1.1//EN" "http://www.w3.org/Graphics/SVG/1.1/DTD/svg11.dtd">
<svg xmlns="http://www.w3.org/2000/svg" version="1.1" width="70px" height="70px" style="shape-rendering:geometricPrecision; text-rendering:geometricPrecision; image-rendering:optimizeQuality; fill-rule:evenodd; clip-rule:evenodd" xmlns:xlink="http://www.w3.org/1999/xlink">
<g><path style="opacity:1" fill="#fefe20" d="M 26.5,32.5 C 25.653,31.0337 24.3197,30.2004 22.5,30C 17.1771,29.5006 11.8437,29.334 6.5,29.5C 6.5,23.5 6.5,17.5 6.5,11.5C 12.1764,11.3339 17.8431,11.5006 23.5,12C 31.8143,17.401 33.6477,24.5676 29,33.5C 28.3292,32.7476 27.4959,32.4142 26.5,32.5 Z"/></g>
<g><path style="opacity:1" fill="#50abe2" d="M 50.5,37.5 C 49.8333,37.5 49.5,37.8333 49.5,38.5C 49.5,39.1667 49.1667,39.5 48.5,39.5C 48.1667,38.1667 47.8333,38.1667 47.5,39.5C 46.8333,39.5 46.5,39.8333 46.5,40.5C 45.8333,40.5 45.5,40.8333 45.5,41.5C 44.8333,41.5 44.5,41.8333 44.5,42.5C 43.8333,42.5 43.5,42.8333 43.5,43.5C 41.9569,35.3836 41.2902,27.0503 41.5,18.5C 49.1239,20.7628 56.7906,22.9295 64.5,25C 59.3154,28.6901 54.6487,32.8567 50.5,37.5 Z"/></g>
<g><path style="opacity:1" fill="#2faceb" d="M 26.5,32.5 C 32.5442,39.4111 33.0442,46.7444 28,54.5C 26.7453,55.2106 25.5786,56.044 24.5,57C 18.5092,57.4995 12.5092,57.6662 6.5,57.5C 6.5,48.5 6.5,39.5 6.5,30.5C 13.3173,30.0643 19.984,30.7309 26.5,32.5 Z"/></g>
<g><path style="opacity:0.998" fill="#fcfa39" d="M 43.5,43.5 C 44.1667,43.5 44.5,43.1667 44.5,42.5C 45.1667,42.5 45.5,42.1667 45.5,41.5C 46.1667,41.5 46.5,41.1667 46.5,40.5C 47.1667,40.5 47.5,40.1667 47.5,39.5C 47.8333,39.5 48.1667,39.5 48.5,39.5C 49.1667,39.5 49.5,39.1667 49.5,38.5C 50.1667,38.5 50.5,38.1667 50.5,37.5C 52.9237,38.0305 55.257,38.8638 57.5,40C 50.9859,46.1787 44.1526,52.012 37,57.5C 35.7252,49.5533 35.2252,41.5533 35.5,33.5C 37.5,33.8333 39.5,34.1667 41.5,34.5C 41.1796,37.8984 41.513,41.2317 42.5,44.5C 43.1067,44.3764 43.44,44.0431 43.5,43.5 Z"/></g>
</svg>
